<mxfile host="app.diagrams.net" agent="Mozilla/5.0 (Windows NT 10.0; Win64; x64) AppleWebKit/537.36 (KHTML, like Gecko) Chrome/131.0.0.0 Safari/537.36" version="26.0.6">
  <diagram name="Page-1" id="Sxj8IKX6KYS_OcdlQ4ZV">
    <mxGraphModel dx="1674" dy="1846" grid="1" gridSize="10" guides="1" tooltips="1" connect="1" arrows="1" fold="1" page="1" pageScale="1" pageWidth="850" pageHeight="1100" math="0" shadow="0">
      <root>
        <mxCell id="0" />
        <mxCell id="1" parent="0" />
        <mxCell id="unDtKZzl3FnLT_fI_RJo-2" value="" style="rounded=1;whiteSpace=wrap;html=1;fillColor=#FFFFFF;rotation=90;" vertex="1" parent="1">
          <mxGeometry x="196.25" y="321.25" width="287.5" height="450" as="geometry" />
        </mxCell>
        <mxCell id="unDtKZzl3FnLT_fI_RJo-3" value="&lt;b class=&quot;custom-cursor-default-hover&quot;&gt;Pipeline Fine-tuning for Prediction&lt;/b&gt;" style="text;html=1;align=center;verticalAlign=middle;whiteSpace=wrap;rounded=0;" vertex="1" parent="1">
          <mxGeometry x="250" y="410" width="180" height="30" as="geometry" />
        </mxCell>
        <mxCell id="unDtKZzl3FnLT_fI_RJo-16" style="edgeStyle=orthogonalEdgeStyle;rounded=0;orthogonalLoop=1;jettySize=auto;html=1;exitX=0.5;exitY=0;exitDx=0;exitDy=0;entryX=0.5;entryY=1;entryDx=0;entryDy=0;" edge="1" parent="1" source="unDtKZzl3FnLT_fI_RJo-4" target="unDtKZzl3FnLT_fI_RJo-5">
          <mxGeometry relative="1" as="geometry" />
        </mxCell>
        <mxCell id="unDtKZzl3FnLT_fI_RJo-13" style="edgeStyle=orthogonalEdgeStyle;rounded=0;orthogonalLoop=1;jettySize=auto;html=1;exitX=0.5;exitY=0;exitDx=0;exitDy=0;entryX=0.5;entryY=1;entryDx=0;entryDy=0;" edge="1" parent="1" source="unDtKZzl3FnLT_fI_RJo-4" target="unDtKZzl3FnLT_fI_RJo-5">
          <mxGeometry relative="1" as="geometry" />
        </mxCell>
        <mxCell id="unDtKZzl3FnLT_fI_RJo-4" value="Optimization for Fine-Tuning&amp;nbsp;" style="rounded=1;whiteSpace=wrap;html=1;" vertex="1" parent="1">
          <mxGeometry x="260" y="570" width="180" height="90" as="geometry" />
        </mxCell>
        <mxCell id="unDtKZzl3FnLT_fI_RJo-5" value="Fine-Tuning with the initial dataset of Litterature Model&lt;div class=&quot;custom-cursor-default-hover&quot;&gt;for Prediction of AI and AO properties (Boltz-1)&lt;/div&gt;" style="rounded=1;whiteSpace=wrap;html=1;" vertex="1" parent="1">
          <mxGeometry x="260" y="440" width="180" height="110" as="geometry" />
        </mxCell>
        <mxCell id="unDtKZzl3FnLT_fI_RJo-6" value="" style="rounded=1;whiteSpace=wrap;html=1;fillColor=#FFFFFF;rotation=90;" vertex="1" parent="1">
          <mxGeometry x="196.25" y="-90" width="287.5" height="450" as="geometry" />
        </mxCell>
        <mxCell id="unDtKZzl3FnLT_fI_RJo-7" value="" style="shape=flexArrow;endArrow=classic;html=1;rounded=0;entryX=1;entryY=0.5;entryDx=0;entryDy=0;exitX=0;exitY=0.5;exitDx=0;exitDy=0;endWidth=22;endSize=11.42;width=20;" edge="1" parent="1" source="unDtKZzl3FnLT_fI_RJo-2" target="unDtKZzl3FnLT_fI_RJo-6">
          <mxGeometry width="50" height="50" relative="1" as="geometry">
            <mxPoint x="340" y="400" as="sourcePoint" />
            <mxPoint x="380" y="350" as="targetPoint" />
            <Array as="points">
              <mxPoint x="340" y="370" />
              <mxPoint x="340" y="340" />
            </Array>
          </mxGeometry>
        </mxCell>
        <mxCell id="unDtKZzl3FnLT_fI_RJo-14" style="edgeStyle=orthogonalEdgeStyle;rounded=0;orthogonalLoop=1;jettySize=auto;html=1;exitX=0.5;exitY=0;exitDx=0;exitDy=0;" edge="1" parent="1" source="unDtKZzl3FnLT_fI_RJo-8" target="unDtKZzl3FnLT_fI_RJo-10">
          <mxGeometry relative="1" as="geometry" />
        </mxCell>
        <mxCell id="unDtKZzl3FnLT_fI_RJo-8" value="Prediction for AI and AO properties on a bigger public dataset :&lt;div&gt;error mitigation techniques&lt;/div&gt;" style="rounded=1;whiteSpace=wrap;html=1;" vertex="1" parent="1">
          <mxGeometry x="260" y="112.5" width="160" height="147.5" as="geometry" />
        </mxCell>
        <mxCell id="unDtKZzl3FnLT_fI_RJo-9" value="&lt;b&gt;Prediction on a bigger dataset&lt;/b&gt;" style="text;html=1;align=center;verticalAlign=middle;whiteSpace=wrap;rounded=0;" vertex="1" parent="1">
          <mxGeometry x="250" y="-10" width="180" height="30" as="geometry" />
        </mxCell>
        <mxCell id="unDtKZzl3FnLT_fI_RJo-10" value="New Extended Dataset D&#39;&#39;" style="rounded=1;whiteSpace=wrap;html=1;" vertex="1" parent="1">
          <mxGeometry x="260" y="20" width="160" height="60" as="geometry" />
        </mxCell>
        <mxCell id="unDtKZzl3FnLT_fI_RJo-17" style="edgeStyle=orthogonalEdgeStyle;rounded=0;orthogonalLoop=1;jettySize=auto;html=1;exitX=0.5;exitY=0;exitDx=0;exitDy=0;" edge="1" parent="1" source="unDtKZzl3FnLT_fI_RJo-11" target="unDtKZzl3FnLT_fI_RJo-4">
          <mxGeometry relative="1" as="geometry" />
        </mxCell>
        <mxCell id="unDtKZzl3FnLT_fI_RJo-11" value="Enhanced Dataset D&#39; with AI and AO properties&lt;div&gt;(D&#39;&amp;gt;&amp;gt;D)&lt;/div&gt;" style="rounded=1;whiteSpace=wrap;html=1;" vertex="1" parent="1">
          <mxGeometry x="127.5" y="690" width="442.5" height="60" as="geometry" />
        </mxCell>
        <mxCell id="unDtKZzl3FnLT_fI_RJo-15" value="New Extended Dataset D&#39;&#39; with AI and AO properties&lt;div&gt;(D&#39;&#39;&amp;gt;&amp;gt;D&#39;)&lt;/div&gt;" style="rounded=1;whiteSpace=wrap;html=1;" vertex="1" parent="1">
          <mxGeometry x="115" y="-70" width="450" height="60" as="geometry" />
        </mxCell>
      </root>
    </mxGraphModel>
  </diagram>
</mxfile>
